<?xml version="1.0" encoding="UTF-8"?>
<svg width="4680px" height="3120px" viewBox="0 0 4680 3120" version="1.1" xmlns="http://www.w3.org/2000/svg" xmlns:xlink="http://www.w3.org/1999/xlink">
    <title>esign</title>
    <g id="Page-1" stroke="none" stroke-width="1" fill="none" fill-rule="evenodd">
        <g id="esign" fill-rule="nonzero">
            <rect id="Rectangle" fill="#FFFFFF" opacity="0" x="0" y="0" width="4680" height="3120"></rect>
            <ellipse id="Oval" fill="#C2C7F8" cx="2326.39" cy="2604" rx="1376.57" ry="153.96"></ellipse>
            <path d="M3499.06,1800.4 C3499.06,2114.4 3099.72,2369 2607.06,2369 C2582.34667,2369 2557.87667,2368.35333 2533.65,2367.06 L2533.65,2367.06 L2147.89,2354.72 C1705.61,2354.72 1330.72,2109.87 1201.45,1771.23 C1169.58372,1688.17951 1153.22,1599.98417 1153.22,1511.03 C1153.22,1045.03 1598.55,667.33 2147.89,667.33 C2626.29,667.33 3025.77,953.86 3120.95,1335.64 C3338.01,1433.33 3483.6,1591.23 3497.85,1771.23 C3498.66,1780.9 3499.06,1790.6 3499.06,1800.4 Z" id="Path" fill="#DBDFFE"></path>
            <g id="Group" transform="translate(1131.770000, 1761.510000)">
                <path d="M2367.29,38.89 C2367.29,352.89 1967.95,607.49 1475.29,607.49 C1450.57667,607.49 1426.10667,606.843333 1401.88,605.55 L1401.88,605.55 L1016.12,593.21 C573.84,593.21 198.95,348.36 69.68,9.72 L2366.12,9.72 C2366.89,19.39 2367.29,29.09 2367.29,38.89 Z" id="Path" fill="#C5D3FF"></path>
                <rect id="Rectangle" fill="#BBC8FF" x="334.09" y="9.72" width="16.53" height="445.55"></rect>
                <rect id="Rectangle" fill="#BBC8FF" x="600" y="9.72" width="16.53" height="536.73"></rect>
                <polygon id="Path" fill="#BBC8FF" points="881.64 615.05 865.11 615.05 861.81 9.72 878.34 9.72"></polygon>
                <polygon id="Path" fill="#BBC8FF" points="1162.15 615.05 1145.61 615.05 1142.32 9.72 1158.85 9.72"></polygon>
                <polygon id="Path" fill="#BBC8FF" points="1442.65 615.05 1426.12 615.05 1422.82 9.72 1439.35 9.72"></polygon>
                <polygon id="Path" fill="#BBC8FF" points="1723.15 615.05 1706.62 615.05 1703.32 9.72 1719.86 9.72"></polygon>
                <polygon id="Path" fill="#BBC8FF" points="2003.66 615.05 1987.13 615.05 1983.83 9.72 2000.36 9.72"></polygon>
                <polygon id="Path" fill="#BBC8FF" points="2284.16 615.05 2267.63 615.05 2264.33 9.72 2280.86 9.72"></polygon>
                <polygon id="Path" fill="#BBC8FF" points="106.49 269.41 106.49 252.88 2436.82 249.58 2436.82 266.11"></polygon>
                <polygon id="Path" fill="#BBC8FF" points="0 19.83 0 3.3 2436.82 0 2436.82 16.53"></polygon>
                <polygon id="Path" fill="#BBC8FF" points="106.49 527.23 106.49 510.7 2436.82 507.4 2436.82 523.94"></polygon>
            </g>
            <path d="M3351.09,1411.5 C3351.09,1411.5 3273.29,1275.06 3351.48,1269.63 C3429.67,1264.2 3477.27,1339.07 3465.57,1399.9 C3454.09,1459.57 3384.17,1498.18 3351.09,1411.5 Z" id="Path" fill="#EAEAEA"></path>
            <path d="M3380.09003,802.249994 L3380.09003,1573.11 C3380.09003,1612.32222 3348.30222,1644.11 3309.09,1644.11 L2029.32,1644.11 C1990.10778,1644.11 1958.32,1612.32222 1958.32,1573.11 L1958.32,802.249994 C1958.32,763.037783 1990.10778,731.249994 2029.32,731.249994 L3309.13,731.249994 C3327.95914,731.249994 3346.01879,738.721081 3359.32925,752.039044 C3372.63971,765.357007 3380.10858,783.42087 3380.09003,802.249994 Z" id="Path" fill="#7370E8"></path>
            <path d="M2292.035,514.274999 L3046.455,514.274999 C3069.48299,514.274999 3088.15396,532.937015 3088.165,555.965001 L3088.165,1819.365 C3088.165,1842.4008 3069.4908,1861.075 3046.455,1861.075 L2292.035,1861.075 C2268.99368,1861.075 2250.315,1842.39632 2250.315,1819.355 L2250.315,555.965001 C2250.32604,532.933109 2269.00311,514.274999 2292.035,514.274999 Z" id="Path" fill="#CCD5F4" transform="translate(2669.240001, 1187.675000) rotate(90.000000) translate(-2669.240001, -1187.675000) "></path>
            <g id="Group" opacity="0.58" transform="translate(3110.149995, 731.289999)" fill="#3E51C7">
                <path d="M269.940011,70.9600007 L269.940011,301.320002 L42.5100047,301.320002 C31.2331053,301.320002 20.4174622,296.843416 12.4444277,288.868506 C4.47139328,280.893596 -0.00530237556,270.076899 4.54747351e-13,258.800001 L4.54747351e-13,0 L199,0 C217.818742,0 235.867182,7.47325337 249.172164,20.7819856 C262.477145,34.0907178 269.947964,52.141265 269.940011,70.9600007 Z" id="Path"></path>
            </g>
            <g id="Group" opacity="0.62" transform="translate(2089.360000, 873.250000)" fill="#E9F1FA">
                <rect id="Rectangle" x="4.54747351e-13" y="0" width="1153.28" height="630.93" rx="48.25"></rect>
            </g>
            <g id="Group" opacity="0.62" transform="translate(2157.890000, 975.060000)" fill="#FFFFFF">
                <path d="M1022.66,434.13 L0,434.13 L0,1.13686838e-13 L1022.66,1.13686838e-13 L1022.66,434.13 Z M4.19,429.97 L1018.49,429.97 L1018.49,4.16 L4.19,4.16 L4.19,429.97 Z" id="Shape"></path>
            </g>
            <g id="Group" opacity="0.62" transform="translate(2143.060000, 960.210000)" fill="#FFFFFF">
                <circle id="Oval" cx="16.93" cy="16.93" r="16.93"></circle>
                <circle id="Oval" cx="526.17" cy="16.93" r="16.93"></circle>
                <circle id="Oval" cx="1035.4" cy="16.93" r="16.93"></circle>
                <circle id="Oval" cx="16.93" cy="231.92" r="16.93"></circle>
                <circle id="Oval" cx="526.17" cy="231.92" r="16.93"></circle>
                <circle id="Oval" cx="1035.4" cy="231.92" r="16.93"></circle>
                <circle id="Oval" cx="16.93" cy="446.9" r="16.93"></circle>
                <circle id="Oval" cx="526.17" cy="446.9" r="16.93"></circle>
                <circle id="Oval" cx="1035.4" cy="446.9" r="16.93"></circle>
            </g>
            <g id="Group" opacity="0.62" transform="translate(2667.150000, 977.140000)" fill="#FFFFFF">
                <rect id="Rectangle" x="0" y="1.13686838e-13" width="4.16" height="429.97"></rect>
            </g>
            <g id="Group" opacity="0.62" transform="translate(2160.000000, 1190.040000)" fill="#FFFFFF">
                <rect id="Rectangle" x="-4.54747351e-13" y="0" width="1018.47" height="4.16"></rect>
            </g>
            <path d="M2313.13,1343.44 L2306.44,1335.72 C2307.51,1334.79 2374.7,1276.27 2431.04,1209.65 C2434.32,1187.59 2438.91,1164.15 2443.45,1140.96 C2444.63,1134.96 2445.8,1128.96 2446.94,1123.07 C2456.31,1074.34 2480.72,1039.33 2498.94,1033.62 C2504.74,1031.8 2510.05,1032.86 2513.89,1036.62 C2524.66,1047.11 2519.6,1074.92 2513.46,1096.41 C2503.2,1132.31 2473.9,1174.79 2440.76,1214.32 C2434.85,1255.46 2433.76,1291.63 2447.24,1307.6 C2452.3,1313.6 2459.24,1316.37 2468.68,1316.14 C2492.58,1315.52 2526.33,1288.67 2559.42,1244.08 C2554.89,1222.2 2557.75,1195.55 2561.65,1177.97 C2570.48,1138.24 2593.79,1103.76 2610.4,1105.57 C2616.48,1106.23 2623.72,1111.31 2623.72,1131.69 C2623.72,1155.82 2601.06,1203.82 2570.46,1246.12 C2573.14,1256.04 2577.59,1263.82 2584.14,1267.83 C2598.52,1276.65 2623.06,1267.32 2655.14,1240.83 C2673.96692,1225.40774 2691.0487,1207.97051 2706.08,1188.83 C2704.04189,1184.83891 2702.78921,1180.49355 2702.39,1176.03 C2699.09,1146.42 2720.64,1094.68 2736.68,1084.55 C2747.47,1077.74 2753.21,1083.95 2754.68,1086.02 C2764.21,1099.18 2752.94,1141.92 2718.98,1188.29 C2719.60917,1188.67759 2720.28009,1188.99292 2720.98,1189.23 C2731.42,1192.93 2761.1,1187.11 2842.84,1106.63 L2847.57,1101.97 L2850.87,1107.74 C2851.03,1107.97 2877.31,1143.82 3030.51,1061.44 L3035.34,1070.44 C2901.42,1142.44 2858.6,1127.57 2846.28,1117.58 C2789.46,1173.03 2749.92,1200.23 2726.06,1200.23 C2723.16854,1200.27138 2720.29204,1199.80775 2717.56,1198.86 C2715.88601,1198.26831 2714.29603,1197.46155 2712.83,1196.46 C2697.70088,1215.67121 2680.54513,1233.19576 2661.66,1248.73 C2625.43,1278.64 2597.56,1288 2578.85,1276.53 C2571.49,1272.02 2566.39,1264.83 2563,1256.16 C2533.55,1294.34 2498.29,1325.58 2469,1326.33 C2456.59,1326.64 2446.58,1322.56 2439.49,1314.17 C2425.49,1297.57 2424.38,1265.96 2428.64,1228.5 C2375.36,1289.26 2317.24,1339.88 2313.13,1343.44 Z M2608.89,1115.69 C2600.81,1115.69 2580.07,1142.1 2571.61,1180.18 C2567.78,1197.41 2566.27,1216.18 2567.94,1232.18 C2594.67,1193.41 2613.48,1152.24 2613.48,1131.72 C2613.48,1120.35 2610.96,1115.94 2609.27,1115.72 L2608.89,1115.69 Z M2504.27,1042.96 C2503.48441,1042.97785 2502.70586,1043.11267 2501.96,1043.36 C2488.9,1047.46 2465.96,1078.11 2456.96,1125 C2455.82,1130.89 2454.65,1136.88 2453.47,1142.92 C2450.19,1159.71 2446.79,1177.07 2443.9,1194.03 C2471.63,1159.45 2494.96,1123.76 2503.59,1093.58 C2512.28,1063.15 2510.7,1047.81 2506.71,1043.92 C2506.07559,1043.25948 2505.18441,1042.90885 2504.27,1042.96 L2504.27,1042.96 Z M2745.64,1091.71 C2744.35941,1091.94762 2743.1431,1092.45187 2742.07,1093.19 C2730.12,1100.74 2709.52,1148.41 2712.48,1174.9 C2712.63418,1176.34112 2712.88136,1177.77077 2713.22,1179.18 C2744.07,1136.02 2751.85,1099.61 2746.35,1092.01 C2746.17486,1091.80323 2745.90982,1091.69497 2745.64,1091.72 L2745.64,1091.71 Z" id="Shape" fill="#ACBEEF"></path>
            <path d="M2209.51,747.39002 C2208.83197,747.39002 2208.18079,747.125173 2207.70041,746.646667 C2207.22003,746.168161 2206.95,745.518038 2206.95,744.84 L2206.95,473.38 C2206.97204,454.727436 2222.08744,439.612041 2240.74,439.59 L2364.44,439.59 C2365.78911,439.674443 2366.84008,440.793248 2366.84008,442.145 C2366.84008,443.496752 2365.78911,444.615557 2364.44,444.7 L2240.74,444.7 C2224.90733,444.716535 2212.07654,457.547328 2212.06,473.38 L2212.06,744.84 C2212.06,746.248326 2210.91833,747.39002 2209.51,747.39002 L2209.51,747.39002 Z" id="Path" fill="#14245B"></path>
            <path d="M2209.51,749.1 C2207.15727,749.1 2205.25,747.192733 2205.25,744.84 L2205.25,473.38 C2205.27204,453.788552 2221.14855,437.912044 2240.74,437.89 L2364.44,437.89 C2366.00938,437.813896 2367.49324,438.607839 2368.30072,439.955693 C2369.10821,441.303546 2369.10821,442.986454 2368.30072,444.334307 C2367.49324,445.682161 2366.00938,446.476104 2364.44,446.4 L2240.74,446.4 C2225.82831,446.4 2213.74,458.488312 2213.74,473.4 L2213.74,744.84 C2213.74006,747.181067 2211.85101,749.083514 2209.51,749.1 Z M2240.74,441.29 C2223.02632,441.312039 2208.67204,455.666319 2208.65,473.38 L2208.65,744.84 C2208.69728,745.27657 2209.06588,745.607399 2209.505,745.607399 C2209.94412,745.607399 2210.31272,745.27657 2210.36,744.84 L2210.36,473.38 C2210.35999,456.595106 2223.95512,442.982071 2240.74,442.96 L2364.44,442.96 C2364.90944,442.96 2365.29,442.579442 2365.29,442.11 C2365.29,441.638913 2364.91106,441.255478 2364.44,441.25 L2240.74,441.29 Z" id="Shape" fill="#232C56"></path>
            <circle id="Oval" fill="#14245B" cx="2209.51" cy="731.28" r="25.77"></circle>
            <path d="M2209.51,758.750002 C2198.39356,758.754045 2188.36965,752.06024 2184.11371,741.790761 C2179.85776,731.521282 2182.2082,719.699219 2190.06871,711.838707 C2197.92922,703.978196 2209.75128,701.627759 2220.02076,705.883706 C2230.29024,710.139652 2236.98404,720.163559 2236.98,731.28 C2236.95797,746.442128 2224.67213,758.72797 2209.51,758.750002 Z M2209.51,707.209998 C2199.77368,707.205955 2190.99382,713.067857 2187.26509,722.061879 C2183.53636,731.0559 2185.59322,741.410476 2192.4764,748.296522 C2199.35959,755.182567 2209.71331,757.243727 2218.70888,753.518735 C2227.70445,749.793743 2233.57,741.016316 2233.57,731.28 C2233.55898,717.994976 2222.79502,707.22654 2209.51,707.209998 L2209.51,707.209998 Z" id="Shape" fill="#232C56"></path>
            <rect id="Rectangle" fill="#F9BA67" x="2364.44" y="357.96" width="605.84" height="153.63" rx="34.33"></rect>
            <path d="M2477.39002,465.46 C2477.39457,466.967772 2476.71849,468.397091 2475.55,469.35 C2474.38256,470.388319 2472.87236,470.958204 2471.31,470.950199 C2469.0279,470.969326 2466.9692,469.582286 2466.13,467.46 L2460.13,454.1 L2425.04,454.1 L2419.04,467.46 C2418.59183,468.543023 2417.82445,469.463875 2416.84,470.1 C2415.90857,470.663973 2414.83883,470.958237 2413.75,470.950199 C2412.20866,470.941658 2410.72297,470.372973 2409.57,469.35 C2408.36592,468.419583 2407.66359,466.98166 2407.66996,465.46 C2407.67877,464.563247 2407.88355,463.679261 2408.27,462.87 L2435.78,403.76 C2436.34645,402.487828 2437.31179,401.43473 2438.53,400.76 C2440.96663,399.360319 2443.96337,399.360319 2446.4,400.76 C2447.61312,401.438147 2448.5743,402.490541 2449.14,403.76 L2476.75,462.87 C2477.15028,463.676103 2477.36875,464.560237 2477.39002,465.46 Z M2429.44,444.13 L2455.76,444.13 L2442.6,414.53 L2429.44,444.13 Z" id="Shape" fill="#35261A"></path>
            <path d="M2498.47,467.06 C2493.39524,464.142626 2489.3152,459.766424 2486.76,454.5 C2481.32034,442.337165 2481.32034,428.432835 2486.76,416.27 C2489.3285,411.025576 2493.4065,406.668975 2498.47,403.76 C2503.91035,400.7474 2510.05274,399.232507 2516.27,399.37 C2520.46886,399.340391 2524.6442,399.999121 2528.63,401.32 C2532.36775,402.553032 2535.84595,404.465028 2538.89,406.96 C2539.64895,407.499419 2540.26366,408.217147 2540.68,409.05 C2541.03498,409.904736 2541.20537,410.824829 2541.18,411.75 C2541.22405,413.079451 2540.79928,414.382069 2539.98,415.43 C2539.31184,416.363236 2538.23773,416.920732 2537.09,416.93 C2535.62048,416.882503 2534.19909,416.39477 2533.01,415.53 C2530.58775,413.649595 2527.88917,412.155255 2525.01,411.1 C2522.37309,410.240426 2519.61329,409.818179 2516.84,409.85 C2509.92,409.85 2504.68667,412.01 2501.14,416.33 C2497.59333,420.65 2495.81333,426.983333 2495.8,435.33 C2495.8,443.77 2497.58,450.15 2501.14,454.47 C2504.7,458.79 2509.95,460.953333 2516.89,460.96 C2519.58528,460.987436 2522.26492,460.547595 2524.81,459.66 C2527.7236,458.545289 2530.48797,457.074096 2533.04,455.28 C2533.67835,454.892805 2534.34724,454.558361 2535.04,454.28 C2535.70518,454.015962 2536.41433,453.880239 2537.13,453.88 C2538.27773,453.889268 2539.35184,454.446764 2540.02,455.38 C2540.83928,456.427931 2541.26405,457.730549 2541.22,459.06 C2541.23579,459.968187 2541.06563,460.870005 2540.72,461.71 C2540.31454,462.563633 2539.69855,463.300067 2538.93,463.85 C2535.88217,466.342488 2532.40054,468.251116 2528.66,469.48 C2524.67363,470.797484 2520.49831,471.452834 2516.3,471.42 C2510.07535,471.571994 2503.92209,470.067327 2498.47,467.06 L2498.47,467.06 Z" id="Path" fill="#35261A"></path>
            <path d="M2564.76,467.06 C2559.68291,464.145568 2555.6021,459.768547 2553.05,454.5 C2547.5963,442.340165 2547.5963,428.429835 2553.05,416.27 C2555.61544,411.02347 2559.6942,406.666065 2564.76,403.76 C2570.20035,400.7474 2576.34274,399.232507 2582.56,399.37 C2586.75886,399.340391 2590.9342,399.999121 2594.92,401.32 C2598.66127,402.551912 2602.14296,404.463956 2605.19,406.96 C2605.94895,407.499419 2606.56366,408.217147 2606.98,409.05 C2607.33498,409.904736 2607.50537,410.824829 2607.48,411.75 C2607.52405,413.079451 2607.09928,414.382069 2606.28,415.43 C2605.61184,416.363236 2604.53773,416.920732 2603.39,416.93 C2601.92048,416.882503 2600.49909,416.39477 2599.31,415.53 C2596.88775,413.649595 2594.18917,412.155255 2591.31,411.1 C2588.67309,410.240426 2585.91329,409.818179 2583.14,409.85 C2576.22,409.85 2570.98667,412.01 2567.44,416.33 C2563.89333,420.65 2562.11333,426.983333 2562.1,435.33 C2562.1,443.77 2563.88,450.15 2567.44,454.47 C2571,458.79 2576.23333,460.95 2583.14,460.95 C2585.83528,460.977436 2588.51492,460.537595 2591.06,459.65 C2593.9736,458.535289 2596.73797,457.064096 2599.29,455.27 C2599.92835,454.882805 2600.59724,454.548361 2601.29,454.27 C2601.95518,454.005962 2602.66433,453.870239 2603.38,453.87 C2604.52773,453.879268 2605.60184,454.436764 2606.27,455.37 C2607.08928,456.417931 2607.51405,457.720549 2607.47,459.05 C2607.48579,459.958187 2607.31563,460.860005 2606.97,461.7 C2606.56454,462.553633 2605.94855,463.290067 2605.18,463.84 C2602.13217,466.332488 2598.65054,468.241116 2594.91,469.47 C2590.92363,470.787484 2586.74831,471.442834 2582.55,471.41 C2576.33975,471.557938 2570.20126,470.056961 2564.76,467.06 L2564.76,467.06 Z" id="Path" fill="#35261A"></path>
            <path d="M2620.39,468.96 C2619.23661,467.763804 2618.63802,466.138554 2618.74,464.48 L2618.74,406.35 C2618.63926,404.691629 2619.23767,403.066864 2620.39,401.87 C2621.62301,400.74854 2623.25617,400.171705 2624.92,400.27 L2660.92,400.27 C2662.51804,400.178374 2664.09922,400.637198 2665.4,401.57 C2666.48914,402.476062 2667.08301,403.845689 2667,405.26 C2667.08984,406.715771 2666.49872,408.130753 2665.4,409.09 C2664.1162,410.061339 2662.52673,410.540307 2660.92,410.44 L2631.31,410.44 L2631.31,429.78 L2658.89,429.78 C2660.48686,429.685478 2662.06793,430.140741 2663.37,431.07 C2664.4637,432.015046 2665.05206,433.417498 2664.96,434.86 C2665.04222,436.272032 2664.45279,437.639962 2663.37,438.55 C2662.06793,439.479259 2660.48686,439.934522 2658.89,439.84 L2631.27,439.84 L2631.27,460.38 L2660.89,460.38 C2662.49673,460.279693 2664.0862,460.758661 2665.37,461.73 C2666.46872,462.689247 2667.05984,464.104229 2666.97,465.56 C2667.05301,466.974311 2666.45914,468.343938 2665.37,469.25 C2664.07325,470.191052 2662.48906,470.650748 2660.89,470.55 L2624.89,470.55 C2623.23777,470.642823 2621.61716,470.070209 2620.39,468.96 L2620.39,468.96 Z" id="Path" fill="#35261A"></path>
            <path d="M2679.2,469.4 C2677.98975,468.131876 2677.35656,466.420462 2677.45,464.67 L2677.45,406.35 C2677.34926,404.691629 2677.94767,403.066864 2679.1,401.87 C2680.33301,400.74854 2681.96617,400.171705 2683.63,400.27 L2708.16,400.27 C2715.66,400.27 2721.50667,402.146667 2725.7,405.9 C2729.89333,409.653333 2731.98667,414.92 2731.98002,421.7 C2731.98002,428.48 2729.88667,433.763333 2725.7,437.55 C2721.51333,441.336667 2715.66667,443.23 2708.16,443.23 L2690.31,443.23 L2690.31,464.67 C2690.45743,466.429677 2689.82223,468.164951 2688.57359,469.41359 C2687.32495,470.662229 2685.58968,471.297433 2683.83,471.15 C2682.11179,471.22749 2680.43739,470.594617 2679.2,469.4 L2679.2,469.4 Z M2706.56,433.4 C2715.4,433.4 2719.82,429.543333 2719.82,421.83 C2719.82,414.116667 2715.4,410.263333 2706.56,410.269991 L2690.31,410.269991 L2690.31,433.4 L2706.56,433.4 Z" id="Shape" fill="#35261A"></path>
            <path d="M2759.89,469.3 C2758.69801,468.061593 2758.06866,466.386939 2758.15,464.67 L2758.15,410.84 L2740.01,410.84 C2736.01,410.84 2734.01,409.076667 2734.01,405.55 C2734.01,402.023333 2736.01,400.263333 2740.01,400.269981 L2789.15,400.269981 C2793.15,400.269981 2795.15,402.03 2795.15,405.55 C2795.15,409.07 2793.15,410.833333 2789.15,410.84 L2771.01,410.84 L2771.01,464.67 C2771.12315,466.394286 2770.48739,468.083641 2769.26552,469.305517 C2768.04364,470.527394 2766.35429,471.163148 2764.63,471.05 C2762.8774,471.137899 2761.16501,470.505689 2759.89,469.3 L2759.89,469.3 Z" id="Path" fill="#35261A"></path>
            <path d="M2804.3,468.96 C2803.14661,467.763804 2802.54802,466.138554 2802.65,464.48 L2802.65,406.35 C2802.54926,404.691629 2803.14767,403.066864 2804.3,401.87 C2805.53301,400.74854 2807.16617,400.171705 2808.83,400.27 L2844.83,400.27 C2846.42869,400.172606 2848.01176,400.63198 2849.31,401.57 C2850.39914,402.476062 2850.99301,403.845689 2850.91,405.26 C2850.99984,406.715771 2850.40872,408.130753 2849.31,409.09 C2848.02702,410.062951 2846.43694,410.542103 2844.83,410.44 L2815.23,410.44 L2815.23,429.78 L2842.84,429.78 C2844.43686,429.685478 2846.01793,430.140741 2847.32,431.07 C2848.41741,432.013072 2849.0096,433.415817 2848.92,434.86 C2848.99978,436.273737 2848.40651,437.641972 2847.32,438.55 C2846.01793,439.479259 2844.43686,439.934522 2842.84,439.84 L2815.23,439.84 L2815.23,460.38 L2844.83,460.38 C2846.43694,460.277897 2848.02702,460.757049 2849.31,461.73 C2850.40872,462.689247 2850.99984,464.104229 2850.91,465.56 C2850.99301,466.974311 2850.39914,468.343938 2849.31,469.25 C2848.01399,470.192583 2846.42925,470.652442 2844.83,470.55 L2808.83,470.55 C2807.16759,470.651002 2805.53461,470.077838 2804.3,468.96 L2804.3,468.96 Z" id="Path" fill="#35261A"></path>
            <path d="M2863.01,468.96 C2861.86762,467.757532 2861.27396,466.13582 2861.37,464.48 L2861.37,406.35 C2861.27396,404.69418 2861.86762,403.072468 2863.01,401.87 C2864.24785,400.749946 2865.88342,400.173532 2867.55,400.27 L2887.29,400.27 C2898.77667,400.27 2907.69667,403.343333 2914.05,409.49 C2920.40333,415.636667 2923.57667,424.26 2923.57001,435.36 C2923.57001,446.526667 2920.39667,455.193333 2914.05,461.36 C2907.70333,467.526667 2898.78333,470.6 2887.29,470.58 L2867.55,470.58 C2865.8806,470.671052 2864.24466,470.087302 2863.01,468.96 L2863.01,468.96 Z M2886.49,460.09 C2902.63667,460.09 2910.71,451.85 2910.71,435.37 C2910.71,418.89 2902.63667,410.683333 2886.49,410.749597 L2874.23,410.749597 L2874.23,460.09 L2886.49,460.09 Z" id="Shape" fill="#35261A"></path>
            <rect id="Rectangle" fill="#3E51C7" x="3076.63" y="626.84" width="613.46" height="366.01" rx="42.5"></rect>
            <g id="Group" opacity="0.76" transform="translate(3103.890000, 654.109970)" fill="#DCEBF9">
                <path d="M559,15.2200303 L559,296.22003 C558.988982,304.643328 552.163297,311.469012 543.74,311.48003 L15.25,311.48003 C6.83450423,311.463524 0.0165064139,304.645526 0,296.23003 L0,15.2300303 C0.0220385295,6.81616892 6.84611157,0.00551148912 15.26,0 L543.7,0 C552.125606,-0.0165681269 558.972428,6.79445322 559,15.2200303 L559,15.2200303 Z" id="Path"></path>
            </g>
            <polygon id="Path" fill="#CCD5F4" points="3508.73 654.1 3103.88 870.69 3103.88 740.15 3298.4 654.1"></polygon>
            <path d="M3662.89,669.33 L3662.89,852.19 L3468.19,965.6 L3191.26,965.6 L3622.57,654.099918 L3647.57,654.099918 C3651.62159,654.08672 3655.51237,655.684165 3658.38572,658.540635 C3661.25907,661.397105 3662.87941,665.278402 3662.89,669.33 L3662.89,669.33 Z" id="Path" fill="#CCD5F4"></path>
            <g id="Group" opacity="0.98" transform="translate(3288.480000, 672.710000)" fill="#DCEBF9">
                <rect id="Rectangle" x="0" y="0" width="189.75" height="220.78" rx="4.77"></rect>
            </g>
            <path d="M3382.22,692.3 C3382.22,692.3 3419.65,686.54 3430.54,718.39 C3441.43,750.24 3442.46,843.96 3442.46,843.96 L3329.27,841.96 L3333.07,739.82 C3334.23,713.47 3343.3,704.44 3354.47,697.72 C3361.55,693.42 3373.06,690.62 3382.22,692.3 Z" id="Path" fill="#2A283F"></path>
            <path d="M3464.62,893.48 L3305.13,893.48 C3305.13,893.48 3300.89,829.56 3384.89,824.13 C3468.83,829.56 3464.62,893.48 3464.62,893.48 Z" id="Path" fill="#EE4250"></path>
            <path d="M3369.52,807.48 L3368.08,834.54 C3368.08,834.54 3372.82,840.77 3384.35,840.77 C3395.88,840.77 3401.66,834.64 3401.66,834.64 L3398.66,807.48 L3369.52,807.48 Z" id="Path" fill="#FD9A95"></path>
            <ellipse id="Oval" fill="#F9B9B9" transform="translate(3428.031757, 766.794337) rotate(-74.680000) translate(-3428.031757, -766.794337) " cx="3428.03176" cy="766.794337" rx="13.97" ry="10.86"></ellipse>
            <path d="M3426.89,775.47 C3427.13081,775.534937 3427.38808,775.47062 3427.57,775.3 C3434.63,768.63 3431.41,761.23 3431.38,761.15 C3431.20004,760.829362 3430.80506,760.699166 3430.4697,760.849945 C3430.13435,761.000723 3429.9696,761.382584 3430.09,761.73 C3430.21,762 3432.9,768.31 3426.6,774.27 C3426.46562,774.401662 3426.3899,774.581872 3426.3899,774.77 C3426.3899,774.958128 3426.46562,775.138338 3426.6,775.27 C3426.67605,775.362482 3426.77653,775.431774 3426.89,775.47 Z" id="Path" fill="#E27471"></path>
            <ellipse id="Oval" fill="#F9B9B9" transform="translate(3338.605261, 766.393348) rotate(-15.320000) translate(-3338.605261, -766.393348) " cx="3338.60526" cy="766.393348" rx="10.86" ry="13.97"></ellipse>
            <path d="M3339.47,775.47 C3339.23231,775.535243 3338.97783,775.470673 3338.8,775.3 C3331.74,768.63 3334.95,761.23 3334.98,761.15 C3335.14016,760.791015 3335.56101,760.629837 3335.92,760.79 C3336.27899,760.950163 3336.44016,761.371015 3336.28,761.73 C3336.16,762 3333.46,768.31 3339.77,774.27 C3340.04456,774.546798 3340.04456,774.993202 3339.77,775.27 C3339.69015,775.362827 3339.5864,775.431998 3339.47,775.47 Z" id="Path" fill="#E27471"></path>
            <path d="M3424.52,726.15 L3424.52,760.15 L3421.47,779.51 C3418.03,801.16 3403.71,816.15 3383.18,816.15 C3362.65,816.15 3348.13,800.32 3344.93,779.51 L3341.89,759.06 L3341.89,718.14 C3342.43932,716.93341 3343.06734,715.764224 3343.77,714.64 C3344.83084,712.879883 3346.03136,711.207838 3347.36,709.64 L3415.77,709.64 C3420.00224,714.338465 3423.00798,720.009869 3424.52,726.15 L3424.52,726.15 Z" id="Path" fill="#FECBCB"></path>
            <path d="M3384.69,784.9 C3382.69,784.9 3380.52,784.6 3379.55,783.04 C3378.49,781.32 3379.55,779.36 3380.4,777.79 L3380.76,777.11 C3381.76,775.23 3382.36,770.37 3382.52,768.66 C3382.57359,768.086589 3382.92902,767.585324 3383.4524,767.345029 C3383.97579,767.104733 3384.58761,767.161913 3385.0574,767.495029 C3385.5272,767.828145 3385.78359,768.386589 3385.73,768.96 C3385.67,769.65 3385.06,775.81 3383.63,778.59 L3383.24,779.33 C3382.83361,779.975873 3382.52999,780.680941 3382.34,781.42 C3383.12022,781.619392 3383.92541,781.703617 3384.73,781.67 L3385.37,781.67 C3386.25697,781.652724 3386.99689,782.343905 3387.04,783.23 C3387.05345,783.658741 3386.89525,784.075123 3386.6005,784.386769 C3386.30575,784.698414 3385.89882,784.879554 3385.47,784.89 L3384.69,784.9 Z" id="Shape" fill="#E27471"></path>
            <ellipse id="Oval" fill="#000000" cx="3363.37" cy="764.56" rx="2.92" ry="3.49"></ellipse>
            <path d="M3361.44,762.64 C3360.80523,762.626869 3360.22736,762.270964 3359.93,761.71 C3359.81342,762.655565 3360.21931,763.589889 3360.99,764.15 L3361.44,762.64 Z" id="Path" fill="#000000"></path>
            <ellipse id="Oval" fill="#000000" cx="3401.56" cy="764.56" rx="2.92" ry="3.49"></ellipse>
            <path d="M3403.49,762.64 C3404.12242,762.627535 3404.69762,762.270912 3404.99,761.71 C3405.12009,762.644031 3404.73817,763.57591 3403.99,764.15 L3403.49,762.64 Z" id="Path" fill="#000000"></path>
            <path d="M3383.39,799.22 C3382.18869,799.227426 3380.99167,799.076117 3379.83,798.77 C3379.03719,798.470785 3378.60893,797.61114 3378.84761,796.798058 C3379.08629,795.984975 3379.91126,795.493212 3380.74,795.67 C3381,795.74 3386.09,797.11 3389.38,793.61 C3389.76495,793.143784 3390.37749,792.930729 3390.96867,793.057421 C3391.55985,793.184114 3392.03128,793.629469 3392.19137,794.212491 C3392.35147,794.795512 3392.17358,795.419169 3391.73,795.83 C3389.55003,798.081961 3386.5229,799.312412 3383.39,799.22 Z" id="Path" fill="#E27471"></path>
            <path d="M3396.54,752.42 C3396.54,752.42 3398.81,749.5 3404.74,750.1 C3410.67,750.7 3411.96,754.66 3411.43,755.61 C3410.9,756.56 3403.22,752.51 3397.81,754.03 C3397.81,754.03 3395.8,754.6 3396.54,752.42 Z" id="Path" fill="#000000"></path>
            <path d="M3369.31,752.08 C3369.31,752.08 3366.88,749.29 3360.99,750.21 C3355.1,751.13 3353.99,755.14 3354.6,756.07 C3355.21,757 3362.6,752.53 3368.12,753.76 C3368.12,753.76 3370.16,754.21 3369.31,752.08 Z" id="Path" fill="#000000"></path>
            <path d="M3416.89,739.74 C3416.89,739.74 3416.59,762.6 3424.32,761.74 L3426.12,752.92 L3426.12,740.8 L3416.89,739.74 Z" id="Path" fill="#38334E"></path>
            <path d="M3427.11,736.36 C3427.04317,740.118726 3426.57722,743.859718 3425.72,747.52 C3400.21,744.77 3386.27,732.13 3380.72,725.94 C3379.35599,724.482958 3378.17093,722.868184 3377.19,721.13 L3379.19,709.67 L3381.46,696.84 C3384.46,696.84 3387.32,696.99 3390.07,697.17 C3400.39,697.88 3410.66,701.96 3417,709.02 C3421.23072,713.710904 3424.24255,719.370522 3425.77,725.5 C3426.60761,729.060974 3427.0569,732.702226 3427.11,736.36 Z" id="Path" fill="#38334E"></path>
            <path d="M3384.35,709.67 C3384.30038,712.605687 3383.90772,715.525507 3383.18,718.37 C3382.61535,720.964403 3381.80503,723.499168 3380.76,725.94 C3376.85,735.44 3365.38,751.35 3342.76,758.27 C3342.08078,758.479782 3341.34288,758.366591 3340.75777,757.962867 C3340.17266,757.559143 3339.80494,756.909453 3339.76,756.2 L3337.7,741.86 C3337.44,732.42 3336.95,724.36 3340.7,716.59 C3341.25681,715.385269 3341.88803,714.216344 3342.59,713.09 C3343.6474,711.327623 3344.84813,709.655306 3346.18,708.09 C3352.67,700.52 3364.38,695.88 3381.52,696.81 C3381.54,696.84 3384.44,701.47 3384.35,709.67 Z" id="Path" fill="#38334E"></path>
            <g id="Group" opacity="0.98" transform="translate(3140.540000, 913.750000)" fill="#DCEBF9">
                <rect id="Rectangle" x="0" y="0" width="485.63" height="24.42" rx="12.21"></rect>
            </g>
            <g id="Group" opacity="0.58" transform="translate(1958.410000, 731.250000)" fill="#3E51C7">
                <path d="M186.48,0.04 C180.702005,90.8426065 122.47315,169.924425 37.48,202.4 C25.3215297,207.09896 12.7821772,210.745676 -2.27373675e-13,213.3 L-2.27373675e-13,71 C-2.27373675e-13,31.7877828 31.7877828,0 71,0 L186.48,0.04 Z" id="Path"></path>
            </g>
            <ellipse id="Oval" fill="#A5B3EF" cx="1934.48" cy="2580.99" rx="712.01" ry="93.79"></ellipse>
            <ellipse id="Oval" fill="#A5B3EF" cx="2827.88" cy="2559.42" rx="712.01" ry="93.79"></ellipse>
            <circle id="Oval" fill="#959CF5" cx="1912.62" cy="715.62" r="203.62"></circle>
            <path d="M1749.81,1474.07075 C1749.81,1474.07075 1795.81,1474.81 1839.81,1429.93 C1883.81,1385.05 1828.9,1379.42 1828.9,1379.42 L1755.71,1423.06 L1749.81,1474.07075 Z" id="Path" fill="#9E1B25"></path>
            <path d="M1826.25,878.65 C1826.25,878.65 1823.65,821.28 1743.78,812.28 C1663.91,803.28 1632.41,844.9 1605.42,904.52 C1578.43,964.14 1508.08,978.77 1519.06,1020.39 C1530.04,1062.01 1519.06,1093 1481.26,1097.19 C1443.46,1101.38 1415.31,1127.26 1437.8,1182.38 C1460.29,1237.5 1736.11,1243.38 1736.11,1243.38 L1826.25,1222.57 C1826.25,1222.57 1872.7,1195.84 1850.99,1140.72 C1829.28,1085.6 1808.41,1084.72 1817.15,1027.2 C1825.89,969.68 1831.53,932.61 1831.53,932.61 L1826.25,878.65 Z" id="Path" fill="#382F2C"></path>
            <path d="M1830.27,2548.53 C1830.36301,2553.02857 1829.84836,2557.51911 1828.74,2561.88 C1825.13,2574.88 1816.54,2576.94 1816.54,2576.94 C1740.07,2598.47 1686.48,2578 1686.48,2578 C1680.77877,2567.69396 1673.68174,2558.22454 1665.39,2549.86 C1651.32,2535.62 1637.25,2520.32 1637.25,2520.32 L1624.75,2574.32 C1624.19398,2576.75515 1622.03774,2578.48926 1619.54,2578.51 L1602.03,2578.65 L1594.36,2578.72 C1591.38206,2578.73673 1588.94841,2576.34774 1588.91,2573.37 L1588.74,2553.95 L1588.1,2471.95 C1587.93,2454.1 1594.67,2437.78 1602.68,2424.7 L1604.24,2422.25 C1615.76,2404.4 1623.56,2391.52 1623.56,2391.52 C1623.56,2391.52 1601.72,2207.22 1597.7,2114.87 C1597.4,2107.44 1597.19,2100.59 1597.16,2094.5 C1597.06,2087.24 1597.16,2081.04 1597.5,2076.13 C1599.58,2045.51 1603.15,2013.38 1606.12,1989.13 C1609.12,1965.59 1611.47,1949.48 1611.47,1949.48 L1717.72,1977.35 L1717.07,2009.35 L1715.07,2110.05 L1709.14,2408.75 L1771.82,2506.62 L1830.27,2548.53 Z" id="Path" fill="#FECBCB"></path>
            <path d="M1717.72,1977.41 L1717.07,2009.41 L1715.07,2110.11 C1698.55,2127.98 1646.86,2118.36 1646.86,2118.36 C1621.86,2114.44 1605.98,2103.13 1597.13,2094.48 C1597.03,2087.22 1597.13,2081.02 1597.47,2076.11 C1599.55,2045.49 1603.12,2013.36 1606.09,1989.11 C1609.09,1965.57 1611.44,1949.46 1611.44,1949.46 L1717.72,1977.41 Z" id="Path" fill="#FD9A95"></path>
            <path d="M1830.27214,2547.83 C1830.47,2572.96 1816.58,2576.24 1816.58,2576.24 C1740.13,2597.79 1686.58,2577.3 1686.58,2577.3 C1683.72334,2572.0573 1680.46704,2567.04246 1676.84,2562.3 C1673.3555,2557.66713 1669.56717,2553.27079 1665.5,2549.14 C1651.44,2534.88 1637.38,2519.63 1637.38,2519.63 L1624.88,2573.63 C1624.3009,2576.04349 1622.16165,2577.759 1619.68,2577.8 L1594.51,2578 C1593.07381,2578.02149 1591.6893,2577.46458 1590.66801,2576.45458 C1589.64673,2575.44458 1589.07447,2574.06634 1589.08,2572.63 L1588.25,2471.28 C1588.08,2453.44 1594.81,2437.13 1602.8,2424.07 L1604.39,2421.61 C1604.39,2421.61 1646.39,2442.93 1658.87,2487.29 C1658.87,2487.29 1692.19,2533.71 1735.02,2536.66 C1777.85,2539.61 1771.92,2506.03 1771.92,2506.03 L1820.26,2540.61 L1830.27214,2547.83 Z" id="Path" fill="#972816"></path>
            <path d="M1637.38,2519.14 L1624.89,2576.36 C1624.38421,2578.85671 1622.23558,2580.68304 1619.69,2580.78 L1594.52,2580.99 C1593.04174,2580.9666 1591.63465,2580.35118 1590.61396,2579.28162 C1589.59327,2578.21205 1589.04428,2576.77774 1589.09,2575.3 L1588.26,2467.93 C1618.68,2476.61 1637.38,2519.14 1637.38,2519.14 Z" id="Path" fill="#7A1B16"></path>
            <path d="M1830.27,2548.96 C1830.47,2575.58 1816.58,2579.06 1816.58,2579.06 C1740.13,2601.89 1686.58,2580.18 1686.58,2580.18 C1683.73059,2574.66579 1680.47494,2569.37118 1676.84,2564.34 C1676.84,2564.34 1722.09,2576.57 1761.11,2571.75 C1796.32,2567.4 1792.64,2547.63 1820.26,2541.37 L1830.27,2548.96 Z" id="Path" fill="#842117"></path>
            <path d="M1603.7,2564.68 C1603.7998,2569.40175 1603.23768,2574.11421 1602.03,2578.68 C1598.32,2591.83 1589.63,2593.87 1589.63,2593.87 C1511.07,2616.01 1456.05,2594.96 1456.05,2594.96 C1450.18212,2584.38674 1442.89447,2574.6665 1434.39,2566.07 C1419.94,2551.42 1405.5,2535.75 1405.5,2535.75 L1392.66,2591.25 C1392.05997,2593.73038 1389.8615,2595.49327 1387.31,2595.54 L1361.45,2595.75 C1359.97724,2595.76064 1358.56086,2595.18441 1357.51382,2594.14863 C1356.46679,2593.11285 1355.87528,2591.70279 1355.87,2590.23 L1355.01,2486.09 C1354.84,2467.76 1361.76,2451 1370.01,2437.57 C1371.1,2435.91 1371.64,2435.05 1371.64,2435.05 C1378.80455,2423.96784 1387.43625,2413.90649 1397.3,2405.14 C1397.3,2405.14 1411.98,2184.14 1417.5,2103.14 L1417.5,2102.96 C1417.91,2096.89 1418.28,2091.65 1418.59,2087.32 C1421.72,2041.77 1437.66,1992.24 1445.91,1969.14 C1448.91,1960.76 1450.91,1955.86 1450.91,1955.86 L1577.54,1983.45 L1574.85,1995.45 L1536.18,2167.21 L1482.7,2404.86 C1480.07826,2416.51055 1482.31705,2428.72639 1488.9,2438.69 L1543.81,2521.81 L1569.09,2539.96 L1588.74,2554.03 L1603.7,2564.68 Z" id="Path" fill="#FECBCB"></path>
            <path d="M1749.54,1440.27 C1754.89,1450.12 1787.25,1534.27 1817.15,1561.08 C1847.05,1587.89 1935.65,1518.08 1999.15,1476.96 L1980.36,1440.27 L1886.97,1462.48 L1850.55,1348.68 L1749.54,1440.27 Z" id="Path" fill="#FECBCB"></path>
            <path d="M1764.8,2065.3 C1755.74,2069.01 1720.17,2056.03 1688.69,2066.8 C1657.21,2077.57 1627.61,2080.12 1585.57,2059.75 C1543.53,2039.38 1533.18,2050.48 1464.71,2063.46 C1396.24,2076.44 1394.33,2047.46 1394.33,2047.46 L1407.27,2013.46 C1418.38,1935.72 1366.63,1740.99 1388.84,1646.56 C1411.05,1552.13 1476.46,1495.1 1476.46,1495.1 L1542.75,1505.77 L1698.61,1530.77 C1742.28,1617.94 1742.61,1732.54 1742.76,1859.95 C1742.89682,1885.07774 1744.45263,1910.17771 1747.42,1935.13 C1755.74,2007.32 1771.61,2062.5 1764.8,2065.3 Z" id="Path" fill="#4A6F98"></path>
            <path d="M1482.63,2404.84 C1480.00826,2416.49055 1482.24705,2428.70639 1488.83,2438.67 L1543.74,2521.79 L1569.09,2539.96 C1561.15,2567.66 1551.37,2586.02 1542.75,2557.54 C1524.26,2496.49 1457.42,2469.17 1451.69,2435.1 C1445.96,2401.03 1475.88,2295.6 1479.36,2201.68 C1481.6,2140.68 1444.03,2114.1 1417.46,2102.96 C1417.87,2096.89 1418.24,2091.65 1418.55,2087.32 C1421.68,2041.77 1437.62,1992.24 1445.87,1969.14 C1448.87,1960.76 1450.87,1955.86 1450.87,1955.86 L1577.5,1983.45 L1574.81,1995.45 L1536.14,2167.21 L1482.63,2404.84 Z" id="Path" fill="#FD9A95"></path>
            <path d="M1764.8,2065.3 C1755.74,2069.01 1720.17,2056.03 1688.69,2066.8 C1657.21,2077.57 1627.61,2080.12 1585.57,2059.75 C1543.53,2039.38 1533.18,2050.48 1464.71,2063.46 C1396.24,2076.44 1394.33,2047.46 1394.33,2047.46 L1407.27,2013.46 C1418.38,1935.72 1366.63,1740.99 1388.84,1646.56 C1411.05,1552.13 1476.46,1495.1 1476.46,1495.1 L1542.75,1505.77 C1513.75,1610.45 1471.42,1871.95 1747.42,1935.17 C1755.74,2007.32 1771.61,2062.5 1764.8,2065.3 Z" id="Path" fill="#3C6487"></path>
            <path d="M1698.60006,1514.86 L1698.60006,1530.8 C1698.61528,1535.47584 1695.59538,1539.62111 1691.14,1541.04 C1676.02,1545.85 1639.85,1555.39 1600.47,1551.64 C1553.15,1547.14 1506.47,1526.5 1477.47,1508.08 C1472.75903,1505.11753 1470.42074,1499.51205 1471.63,1494.08 L1476.82,1471.24 L1698.60006,1514.86 Z" id="Path" fill="#295372"></path>
            <path d="M1651.38,920.96 C1651.38,920.96 1617.17,909.96 1606.2,964.88 C1595.23,1019.8 1555.2,1021.69 1548.74,1059.13 C1542.28,1096.57 1548.74,1123.69 1548.74,1123.69 L1783.32,1192.11 C1783.32,1192.11 1836.44,1183.17 1805.53,1124.98 C1774.62,1066.79 1783.21,1013.29 1783.21,1013.29 C1783.21,1013.29 1666.89,919.02 1651.38,920.96 Z" id="Path" fill="#28211F"></path>
            <path d="M1766.45,1478.05 C1766.45,1478.05 1785.12,1470.85 1799.36,1484.59 L1799.78,1485 C1811.61741,1496.22864 1828.40609,1500.56376 1844.2,1496.47 L1958.35,1467.31 L1853.86,1362.31 L1770.86,1390.15 L1749.79,1426.72 C1749.79,1426.72 1755.81,1457.87 1766.45,1478.05 Z" id="Path" fill="#FD9A95"></path>
            <path d="M1868.26,1389.73 C1849.56,1388.73 1832.08,1394.8 1816.61,1404.1 C1776.48,1428.26 1749.81,1474.1 1749.81,1474.1 L1735.19,1431.96 L1734.55,1430.09 C1734.34,1430.6 1734.07,1431.21 1733.8,1431.93 C1733.7412,1432.02388 1733.69418,1432.12464 1733.66,1432.23 C1728.11,1445.65 1711.35,1489.23 1704.4,1507.35 C1702.40261,1512.49572 1698.01423,1516.33882 1692.65,1517.64 C1578.86,1545.77 1503.1,1494.3 1480.99,1476.35 C1476.74349,1472.89164 1474.46385,1467.56999 1474.89,1462.11 L1483.24,1352.93 L1466.17,1369.93 C1388.09,1350.2 1344.35,1289.16 1344.35,1289.16 C1453.19,1125.81 1501.19,1109.66 1501.19,1109.66 C1501.19,1109.66 1578.39,1064.76 1678.88,1088.1 C1739.21,1102.1 1780.47,1147.1 1803.8,1180.89 C1817.11739,1200.33953 1827.30432,1221.75604 1833.99,1244.36 C1844.92,1280.91 1865.63,1349.36 1872.75,1368.12 C1882.63,1394.19 1868.26,1389.73 1868.26,1389.73 Z" id="Path" fill="#D93539"></path>
            <path d="M1783.16,1227.67 C1783.16,1227.77 1782.75,1229.58 1782.1,1232.78 L1782.1,1232.92 C1779.21,1247.5 1771.54,1290.08 1771.54,1326.92 C1771.54,1372.7 1737.68,1428.78 1736.25,1431.16 C1736.0146,1431.55889 1735.63524,1431.85236 1735.19,1431.98 C1734.9898,1432.07389 1734.77111,1432.12005 1734.55,1432.12005 C1734.29136,1432.11238 1734.03665,1432.05465 1733.8,1431.95 C1733.70071,1431.924 1733.60847,1431.87617 1733.53,1431.81 C1732.58983,1431.24352 1732.28189,1430.02516 1732.84,1429.08 C1732.91,1429.02 1733.76,1427.58 1735.16,1425.08 C1742.96,1411.25 1767.56,1364.72 1767.56,1326.94 C1767.69378,1311.02769 1768.76229,1295.13698 1770.76,1279.35 C1774.2,1250.53 1779.21,1227.23 1779.28,1226.88 C1779.51475,1225.81429 1780.56044,1225.13348 1781.63,1225.35 C1782.68175,1225.58484 1783.35832,1226.61076 1783.16,1227.67 Z" id="Path" fill="#BD2328"></path>
            <path d="M1483.24,1354.9 C1483.91998,1354.9 1484.55281,1354.55232 1484.92,1353.98 L1548.64,1253.46 C1549.12,1252.46 1583.64,1175.69 1507.56,1132.2 C1506.61866,1131.7485 1505.4884,1132.09702 1504.96479,1133.00024 C1504.44118,1133.90346 1504.70041,1135.05748 1505.56,1135.65 C1578.46,1177.3 1546.56,1248.55 1545.14,1251.57 L1481.54,1351.86 C1481.18779,1352.46927 1481.18172,1353.21882 1481.52401,1353.83372 C1481.86631,1354.44861 1482.50658,1354.83836 1483.21,1354.86 L1483.24,1354.9 Z" id="Path" fill="#BD2328"></path>
            <path d="M1721.34,1073.96 C1721.34,1073.96 1710.06,1098.14 1706.02,1116.68 C1706.02,1116.68 1727.81,1224.53 1688.32,1216.46 C1648.83,1208.39 1618.97,1103.79 1625.42,1078.8 L1653.63,1003.8 C1653.63,1003.8 1716.5,1038.47 1721.34,1073.96 Z" id="Path" fill="#FD9A95"></path>
            <path d="M1824.52,947.78 C1820.64502,966.800403 1815.48655,985.536591 1809.08,1003.86 C1803.46,1019.73 1796.31,1036.46 1787.52,1050.22 C1778.66,1064.15 1768.17,1075.12 1755.97,1079.22 C1721.53,1090.83 1660.86,1082.01 1652.48,989.69 C1644.1,897.37 1730.8,858.23 1730.8,858.23 C1730.8,858.23 1841.31,837.27 1824.52,947.78 Z" id="Path" fill="#FECBCB"></path>
            <path d="M1674.89,947.32 C1674.89,947.32 1724.33,953.25 1778.89,923.42 C1778.89,923.42 1794.45,954.82 1810.51,965.22 C1826.57,975.62 1809.3,909.12 1809.3,909.12 L1788.3,860.05 L1686.53,879.16 L1674.89,899.8 L1674.89,947.32 Z" id="Path" fill="#FD9A95"></path>
            <path d="M1805.19,867.6 C1800.44,885.19 1777.11,943.6 1677.7,935.6 C1677.7,935.6 1676.13,963.82 1657.31,950.49 C1638.49,937.16 1647.12,900.31 1665.94,868.17 C1684.27,836.86 1765.08,807.78 1803.31,858.45 C1805.31781,861.045215 1806.0119,864.423381 1805.19,867.6 L1805.19,867.6 Z" id="Path" fill="#382F2C"></path>
            <path d="M1803.66,861.12 C1803.66,861.12 1814.11,855.78 1833.98,868.96 C1864.54,889.24 1848.41,979.07 1828.55,979.07 C1808.69,979.07 1781.8,911.95 1783.39,897.28 C1784.98,882.61 1803.66,861.12 1803.66,861.12 Z" id="Path" fill="#382F2C"></path>
            <path d="M1636.5,922.58 C1636.5,922.58 1651.13,816.89 1761.61,832.58 C1761.61,832.58 1684.39,817.03 1651.91,927.33 L1636.5,922.58 Z" id="Path" fill="#28211F"></path>
            <ellipse id="Oval" fill="#FECBCB" transform="translate(1645.101301, 954.450763) rotate(-0.470000) translate(-1645.101301, -954.450763) " cx="1645.1013" cy="954.450763" rx="26.89" ry="34.58"></ellipse>
            <path d="M1648.94,976.87 C1648.47921,976.867744 1648.02723,976.743536 1647.63,976.51 C1647.04878,976.16292 1646.62943,975.598974 1646.46436,974.942446 C1646.29929,974.285919 1646.40205,973.590698 1646.75,973.01 C1657.45,955.09 1647.14,942.24 1646.75,941.7 C1645.94228,940.611168 1646.12349,939.08142 1647.16323,938.211426 C1648.20298,937.341433 1649.74071,937.432893 1650.67,938.42 C1650.8,938.58 1663.8,954.5 1651.19,975.63 C1650.7167,976.416983 1649.85812,976.890155 1648.94,976.87 Z" id="Path" fill="#E27471"></path>
            <path d="M1751.82,1029.87 C1758.5,1032.29 1762.82,1032.47 1765.28,1030.46 C1768.4,1027.92 1767.62,1023.07 1766.87,1018.38 C1766.75,1017.63 1766.63,1016.89 1766.53,1016.17 C1765.43,1008.38 1767.91,990.52 1767.94,990.34 C1768.06703,989.425969 1767.42903,988.582025 1766.515,988.455 C1765.60097,988.327975 1764.75703,988.965969 1764.63,989.88 C1764.53,990.63 1762.07,1008.38 1763.22,1016.63 C1763.33,1017.38 1763.45,1018.14 1763.57,1018.91 C1764.15,1022.49 1764.8,1026.55 1763.18,1027.91 C1762.3,1028.62 1759.68,1029.39 1751.8,1026.35 C1751.38334,1026.18084 1750.91512,1026.19247 1750.50738,1026.38212 C1750.09964,1026.57176 1749.78907,1026.92236 1749.65,1027.35 C1749.49532,1027.76899 1749.51384,1028.23234 1749.70148,1028.63765 C1749.88913,1029.04295 1750.23044,1029.35686 1750.65,1029.51 L1751.82,1029.87 Z" id="Path" fill="#E27471"></path>
            <path d="M1782.04,992.04 C1778.7,990.27 1777.86,985.27 1780.19,980.88 C1782.52,976.49 1787.1,974.38 1790.46,976.14 C1791.92911,976.973809 1792.97037,978.397338 1793.32,980.05 C1794.93363,980.097059 1796.49318,979.465984 1797.62,978.31 C1797.62,978.31 1795.97,981.54 1793.62,982.87 C1793.52326,984.422648 1793.08627,985.935028 1792.34,987.3 C1789.97,991.7 1785.39,993.82 1782.04,992.04 Z" id="Path" fill="#000000"></path>
            <path d="M1728.99,977.83 C1732.78,977.94 1735.99,974.01 1736.1,969.03 C1736.21,964.05 1733.3,959.98 1729.51,959.84 C1727.81833,959.843353 1726.20919,960.571469 1725.09,961.84 C1723.66756,961.077591 1722.6248,959.759657 1722.21,958.2 C1722.21,958.2 1722.06,961.83 1723.47,964.2 C1722.78471,965.598776 1722.41922,967.132495 1722.4,968.69 C1722.26,973.62 1725.2,977.73 1728.99,977.83 Z" id="Path" fill="#000000"></path>
            <path d="M1748.94,933.58 C1748.94,933.58 1737.07,921.19 1722.66,931.3 C1708.25,941.41 1722.11,937.19 1730.81,936.57 C1739.51,935.95 1750.25,939.75 1748.94,933.58 Z" id="Path" fill="#28211F"></path>
            <path d="M1787.98,944.83 C1787.98,944.83 1801.23,939.76 1807.98,951.62 C1814.73,963.48 1806.2,956.02 1800.09,952.78 C1793.98,949.54 1784.75,948.83 1787.98,944.83 Z" id="Path" fill="#28211F"></path>
            <path d="M1741.1,1050.58 C1741.49,1050.58 1741.73,1050.58 1741.81,1050.58 C1742.36189,1050.58099 1742.88967,1050.35389 1743.26839,1049.95244 C1743.64711,1049.551 1743.84311,1049.0109 1743.81,1048.46 C1743.70533,1047.3558 1742.79842,1046.50022 1741.69,1046.46 C1741.42,1046.46 1720.38,1047.04 1712.54,1030.93 C1712.21846,1030.27263 1711.57064,1029.83674 1710.84058,1029.78651 C1710.11051,1029.73629 1709.40911,1030.07937 1709.00058,1030.68651 C1708.59205,1031.29366 1708.53846,1032.07263 1708.86,1032.73 C1717.08,1049.68 1737,1050.58 1741.1,1050.58 Z" id="Path" fill="#E27471"></path>
            <ellipse id="Oval" fill="#FD9A95" transform="translate(1689.967038, 992.749107) rotate(-8.660000) translate(-1689.967038, -992.749107) " cx="1689.96704" cy="992.749107" rx="27.46" ry="30.55"></ellipse>
            <path d="M1809.08,1003.85961 C1803.46,1019.73 1796.31,1036.46 1787.52,1050.22 C1785.36586,1046.60178 1783.94232,1042.59617 1783.33,1038.43 C1780.81,1021.74 1790.89,1006.38 1805.88,1004.09 C1806.93907,1003.9303 1808.00898,1003.8534 1809.08,1003.85961 L1809.08,1003.85961 Z" id="Path" fill="#FD9A95"></path>
            <path d="M1626.8,1075.1 L1690,1220.32 L1686.53,1248.12 L1619.13,1186.97 L1637.89,1154.31 L1561.89,1087.88 C1561.89,1087.88 1583.74,1073.72 1626.8,1075.1 Z" id="Path" fill="#BD2328"></path>
            <path d="M1712.14,1096.37 L1706.02,1116.66 C1706.02,1116.66 1704.2,1130.05 1701.2,1149.93 C1698.93,1164.93 1693.51,1189.73 1693.51,1189.73 L1686.51,1248.12 L1736.09,1198.27 L1721.32,1152.71 L1747.22,1120.82 C1747.22,1120.82 1732.16,1101.44 1712.14,1096.37 Z" id="Path" fill="#BD2328"></path>
            <path d="M1601.11,1308.04 L1614.66,1271.39 C1614.66,1271.39 1637.57,1263 1653.45,1263.68 C1669.33,1264.36 1636.66,1283.18 1636.66,1283.18 L1601.11,1308.04 Z" id="Path" fill="#BD2328"></path>
            <path d="M1716.12,1288.45 C1712.4,1290.56 1702.35,1291.62 1693.91,1282.11 L1664.34,1279.86 L1657.46,1288.96 C1657.46,1288.96 1688.11,1302.72 1693.91,1306.96 C1699.71,1311.2 1690.74,1326.24 1690.74,1326.24 C1690.74,1326.24 1694.45,1332.3 1688.63,1340.75 C1685.12868,1345.83774 1681.95235,1351.14164 1679.12,1356.63 C1679.12,1356.63 1660.62,1358.74 1658.51,1351.34 C1658.51,1351.34 1654.8,1363.47 1650.57,1388.34 C1646.34,1413.21 1623.63,1416.88 1605.67,1411.06 L1512.67,1456.57 L1512.46,1456.67 C1511.64,1457.01 1508.58,1458.34 1503.95,1460.28 C1482.95,1469.14 1429.95,1495.41 1401.44,1498 C1367.44,1501.13 1326.63,1500.76 1318.44,1443.42 C1313.7,1410.27 1327.2,1368.78 1339.44,1339.66 C1344.44,1327.66 1349.22,1317.85 1352.44,1311.52 L1352.44,1311.52 C1354.38,1307.71 1355.78,1305.15 1356.33,1304.2 L1356.46,1303.96 L1356.56,1303.76 L1362.49,1309.76 C1388.70511,1336.12356 1420.83589,1355.84703 1456.21,1367.29 L1449.84,1377.92 L1458.84,1376.12 L1458.74,1375.91 L1581.27,1351.91 L1583.72,1351.44 L1594.05,1349.44 L1596.23,1326.44 C1597.21997,1316.21079 1600.93576,1306.4344 1606.99,1298.13 L1620.82,1279.19 L1624.4,1274.29 C1625.5677,1272.69358 1627.42215,1271.7441 1629.4,1271.73 L1642.08,1271.73 C1642.08,1271.73 1651.08,1260.56 1653.18,1260.08 C1656.18,1259.43 1687.45,1264.24 1695.97,1265.56 C1697.3622,1265.7891 1698.64845,1266.44621 1699.65,1267.44 C1704.64,1272.06 1719.18,1286.68 1716.12,1288.45 Z" id="Path" fill="#FECBCB"></path>
            <path d="M1729.18,1302.58 L1578.89,1270.64 C1577.32899,1270.31125 1575.96316,1269.3744 1575.09436,1268.03648 C1574.22556,1266.69857 1573.92532,1265.06975 1574.26,1263.51 L1574.59,1261.96 C1574.91875,1260.39899 1575.8556,1259.03316 1577.19352,1258.16436 C1578.53143,1257.29556 1580.16025,1256.99532 1581.72,1257.33 L1732.04,1289.27 L1747.27,1299.46 L1729.18,1302.58 Z" id="Path" fill="#F9BA67"></path>
            <polygon id="Path" fill="#FD9A95" points="1690.74 1326.23 1647.77 1306.8 1695.04 1316.51"></polygon>
            <path d="M1658.51,1351.34 C1658.51,1351.34 1666.15,1344.13 1667.16,1339.09 L1678.04,1337.28 L1671.4,1347.35 L1672.94,1356.89 C1672.94,1356.89 1659.62,1356.89 1658.51,1351.34 Z" id="Path" fill="#FD9A95"></path>
            <polygon id="Path" fill="#243572" points="1878.18 1225.86 1885.01 1225.29 2041.22 1217.26 2048.21 1219.26 1979.32 1461.12 1972.32 1459.13 1814.81 1474.87 1809.28 1467.72"></polygon>
            <polygon id="Path" fill="#4758AF" points="2046.73 1224.4 2035.05 1265.45 2035.05 1265.49 2008.41 1359 1994 1409.55 1986.77 1434.97 1977.85 1466.27 1917.25 1469.48 1917.21 1469.48 1847.34 1473.16 1847.31 1473.16 1814.81 1474.86 1831.23 1417.22 1847.1 1361.49 1856.51 1328.51 1873.57 1268.59 1883.69 1233.02 1920.79 1231.05 1985.89 1227.6"></polygon>
            <polygon id="Path" fill="#5569BF" points="1985.89 1227.6 1856.51 1328.51 1873.57 1268.59 1920.79 1231.05"></polygon>
            <polygon id="Path" fill="#5569BF" points="2035.05 1265.49 2008.41 1359 1831.23 1417.22 1847.1 1361.49"></polygon>
            <polygon id="Path" fill="#5569BF" points="1994 1409.55 1986.77 1434.97 1917.25 1469.48 1917.21 1469.48 1847.34 1473.16"></polygon>
            <path d="M2044.31,1408.19 C2043.19,1439.19 1999.17,1476.97 1999.17,1476.97 L1984.29,1447.97 L1983.54,1446.43 L1983.54,1446.43 L1997,1399.28 C1997,1399.28 1976.53,1341.16 2008.58,1316.5 C2009.35262,1315.89554 2010.16073,1315.33788 2011,1314.83 L2011,1314.83 C2040.89,1296.18 2045.37,1378.04 2044.31,1408.19 Z" id="Path" fill="#FECBCB"></path>
            <path d="M1999.17,1368.23 C2006.06,1400.15 2007.52,1414.87 2007.52,1414.87 L1984.29,1447.96 L1982.29,1450.82 L1983.55,1446.42 L1996.97,1399.24 C1996.97,1399.24 1976.5,1341.12 2008.55,1316.46 C2009.32262,1315.85554 2010.13073,1315.29788 2010.97,1314.79 C2010.04,1315.96 1992.5,1337.16 1999.17,1368.23 Z" id="Path" fill="#FD9A95"></path>
            <path d="M1625.94,1282.18 C1625.94,1282.18 1607,1304.83 1605.67,1316.52 C1604.34,1328.21 1601.11,1356.95 1601.11,1356.95 L1596.85,1381.31 L1596.75,1381.11 L1596.65,1380.9 C1596.58,1380.73 1596.44,1380.53 1596.31,1380.29 C1594.02,1376.37 1583.73,1362.64 1552.19,1365.74 C1515.47,1369.39 1429.79,1391.91 1429.79,1391.91 L1403.49,1396.13 C1403.49,1396.13 1423.01,1384.79 1422.49,1374.84 C1421.97,1364.89 1387.13,1362.34 1352.49,1311.48 L1352.49,1311.48 C1354.43,1307.67 1355.83,1305.11 1356.38,1304.16 L1356.51,1303.92 L1356.61,1303.72 L1362.54,1309.72 C1388.75511,1336.08356 1420.88589,1355.80703 1456.26,1367.25 L1449.89,1377.88 L1458.89,1376.08 L1458.79,1375.87 L1581.32,1351.87 L1583.77,1351.4 L1594.1,1349.4 L1596.28,1326.4 C1597.26997,1316.17079 1600.98576,1306.3944 1607.04,1298.09 L1620.87,1279.15 L1625.94,1282.18 Z" id="Path" fill="#FD9A95"></path>
            <path d="M1816.61,1404.1 C1776.48,1428.26 1749.81,1474.1 1749.81,1474.1 L1735.19,1431.96 C1734.9898,1432.05389 1734.77111,1432.10173 1734.55,1432.1 C1734.29136,1432.09238 1734.03665,1432.03465 1733.8,1431.93 C1733.7412,1432.02388 1733.69418,1432.12464 1733.66,1432.23 L1733.53,1431.79 L1735.16,1425.04 C1742.96,1411.21 1767.56,1364.68 1767.56,1326.9 C1767.69378,1310.98769 1768.76229,1295.09698 1770.76,1279.31 L1782.1,1232.77 L1782.1,1232.91 C1781.89,1236.67 1777.78,1316.11 1816.61,1404.1 Z" id="Path" fill="#BD2328"></path>
            <path d="M1603.70208,2564.68 C1603.9,2590.5 1589.63,2593.87 1589.63,2593.87 C1511.07,2616.01 1456.05,2594.96 1456.05,2594.96 C1453.11416,2589.59193 1449.77103,2584.45688 1446.05,2579.6 C1442.46613,2574.84057 1438.57447,2570.3209 1434.4,2566.07 C1419.95,2551.42 1405.51,2535.75 1405.51,2535.75 L1392.67,2591.25 C1392.06997,2593.73038 1389.8715,2595.49327 1387.32,2595.54 L1361.46,2595.75 C1359.98483,2595.76874 1358.56376,2595.19514 1357.51495,2594.15761 C1356.46614,2593.12007 1355.8772,2591.70529 1355.88,2590.23 L1355.02,2486.09 C1354.85,2467.76 1361.77,2451 1370.02,2437.57 C1371.11,2435.91 1371.65,2435.05 1371.65,2435.05 C1371.65,2435.05 1414.85,2456.96 1427.65,2502.54 C1427.65,2502.54 1461.88,2550.23 1505.9,2553.26 C1549.92,2556.29 1543.81,2521.79 1543.81,2521.79 L1593.48,2557.32 L1603.70208,2564.68 Z" id="Path" fill="#972816"></path>
            <path d="M1405.5,2535.2 L1392.66,2593.96 C1392.13379,2596.52568 1389.92688,2598.40258 1387.31,2598.51 L1361.45,2598.72 C1358.32624,2598.65979 1355.83983,2596.08394 1355.89,2592.96 L1355.03,2482.64 C1386.29,2491.5 1405.5,2535.2 1405.5,2535.2 Z" id="Path" fill="#7A1B16"></path>
            <path d="M1603.7,2565.84 C1603.9,2593.2 1589.63,2596.77 1589.63,2596.77 C1511.07,2620.23 1456.05,2597.92 1456.05,2597.92 C1453.12433,2592.25642 1449.78179,2586.81811 1446.05,2581.65 C1446.05,2581.65 1492.55,2594.21 1532.65,2589.26 C1568.82,2584.79 1565.04,2564.47 1593.42,2558.05 L1603.7,2565.84 Z" id="Path" fill="#842117"></path>
            <path d="M3262.42,2075.65999 C3262.42,2075.65999 3413.71,2075.25 3472.78,2257.3 L3425.36,2277.48 C3425.36,2277.48 3363.03,2097.34 3262.42,2075.65999 Z" id="Path" fill="#8484F7"></path>
            <path d="M3447.32,2327.5 C3447.32,2327.5 3424.66,2009.5 3238.97,1885.69 C3238.97,1885.69 3548.45,1944.61 3468.25,2327.5 L3447.32,2327.5 Z" id="Path" fill="#DBDFFE"></path>
            <path d="M3468.25,2327.5 L3485.44,2327.5 C3485.44,2327.5 3509.2,2234.76 3636.6,2253.78 C3636.6,2253.78 3495.74,2190.18 3468.25,2327.5 Z" id="Path" fill="#CAD1FC"></path>
            <path d="M3461.63,2327.5 C3461.63,2327.5 3444.3,2042.5 3801.97,1992.37 C3801.97,1992.37 3537.61,2106.37 3476.19,2327.5 L3461.63,2327.5 Z" id="Path" fill="#8484F7"></path>
            <path d="M3439.46,2327.5 L3457.98,2327.5 C3457.98,2327.5 3445.4,2209.02 3366.5,2201.62 C3287.6,2194.22 3262.42,2270.5 3262.42,2270.5 C3262.42,2270.5 3368.35,2173.39 3439.46,2327.5 Z" id="Path" fill="#CAD1FC"></path>
            <path d="M3549.83,2354.15 L3549.83,2468.15 C3549.83,2487.89 3545.26,2507.54 3535.63,2524.82 C3529.63,2535.43 3521.43,2546 3510.1,2553.45 C3505.57989,2556.3987 3500.29686,2557.96276 3494.9,2557.9501 L3433.57,2557.9501 C3428.17748,2557.96436 3422.89811,2556.40384 3418.38,2553.46 C3407.04,2546 3398.79,2535.46 3392.85,2524.82 C3383.22,2507.54 3378.65,2487.89 3378.65,2468.15 L3378.65,2354.15 L3549.83,2354.15 Z" id="Path" fill="#6E80E5"></path>
            <rect id="Rectangle" fill="#4763C9" x="3365.76" y="2327.5" width="203.03" height="34.01" rx="7.44"></rect>
            <rect id="Rectangle" fill="#8491F4" x="2068.67" y="1907.71" width="1248.09" height="187.64"></rect>
            <path d="M3316.76,1907.71 L3316.76,2095.34 L2068.67,2095.34 L2068.67,2031.61 C2169.67,2038.93 2602.22,2059.23 2998.38,1907.71 L3316.76,1907.71 Z" id="Path" fill="#7889EF"></path>
            <path d="M2695.25002,1907.71 L2695.25002,2095.34 L2690.14,2095.34 L2690.14,1907.71 C2690.15088,1906.30068 2691.29068,1905.16088 2692.7,1905.15 C2693.37804,1905.15 2694.02816,1905.42003 2694.50667,1905.90041 C2694.98517,1906.38079 2695.25266,1907.03197 2695.25002,1907.71 L2695.25002,1907.71 Z" id="Path" fill="#647CE2"></path>
            <path d="M3445.09,1875.72 C3445.09,1893.39311 3430.76311,1907.72 3413.09,1907.72 L1959.22,1907.72 C1941.54689,1907.72 1927.22,1893.39311 1927.22,1875.72 C1927.22,1858.04689 1941.54689,1843.72 1959.22,1843.72 L3413.1,1843.72 C3430.76921,1843.72552 3445.09,1858.05079 3445.09,1875.72 Z" id="Path" fill="#354075"></path>
            <path d="M3365.75,1843.73 C3365.75,1861.40311 3351.42311,1875.73 3333.75,1875.73 L1927.23,1875.73 C1927.23,1858.05689 1941.55689,1843.73 1959.23,1843.73 L3365.75,1843.73 Z" id="Path" fill="#404A87"></path>
            <path d="M2008.76,1907.71 L2068.67,1907.71 L2068.67,2569.59 C2068.67,2575.11285 2064.19285,2579.59 2058.67,2579.59 L2018.79,2579.59 C2013.26715,2579.59 2008.79,2575.11285 2008.79,2569.59 L2008.79,1907.71 L2008.76,1907.71 Z" id="Path" fill="#404A87"></path>
            <path d="M3316.75,1907.71 L3376.66,1907.71 L3376.66,2569.59 C3376.66,2575.11285 3372.18285,2579.59 3366.66,2579.59 L3326.78,2579.59 C3321.25715,2579.59 3316.78,2575.11285 3316.78,2569.59 L3316.78,1907.71 L3316.75,1907.71 Z" id="Path" fill="#404A87"></path>
            <circle id="Oval" fill="#404A87" cx="2373.44" cy="2007.04" r="28.24"></circle>
            <circle id="Oval" fill="#404A87" cx="3011.97" cy="2007.04" r="28.24"></circle>
            <polygon id="Path" fill="#2E3B68" points="3316.75 1907.71 3376.65 1907.71 3376.65 1975.73 3316.75 1998.75"></polygon>
            <polygon id="Path" fill="#2E3B68" points="2008.76 1907.71 2068.66 1907.71 2068.66 1975.73 2008.76 1998.75"></polygon>
            <path d="M2104.61,1710.72 L2393.01,1710.72 L2393.01,1777.22 L2104.61,1777.22 C2097.30859,1777.22 2090.30623,1774.31953 2085.14335,1769.15665 C2079.98047,1763.99377 2077.08,1756.99141 2077.08,1749.69 L2077.08,1738.24 C2077.08552,1723.03951 2089.40951,1710.72 2104.61,1710.72 L2104.61,1710.72 Z" id="Path" fill="#5151D6"></path>
            <path d="M2214.595,1597.245 L2257.595,1597.245 L2257.595,1874.335 C2257.595,1883.38142 2250.26142,1890.715 2241.215,1890.715 L2230.985,1890.715 C2221.93858,1890.715 2214.605,1883.38142 2214.605,1874.335 L2214.605,1597.245 L2214.595,1597.245 Z" id="Path" fill="#E9F1FA" transform="translate(2236.095000, 1743.980000) rotate(90.000000) translate(-2236.095000, -1743.980000) "></path>
            <path d="M2104.61,1777.22 L2427.08,1777.22 L2427.08,1843.72 L2104.61,1843.72 C2089.4056,1843.72 2077.08,1831.3944 2077.08,1816.19 L2077.08,1804.74 C2077.08552,1789.53951 2089.40951,1777.22 2104.61,1777.22 L2104.61,1777.22 Z" id="Path" fill="#4646BC"></path>
            <path d="M2231.37,1646.85 L2274.58,1646.85 L2274.58,1957.63 C2274.58,1966.71508 2267.21508,1974.08 2258.13,1974.08 L2247.82,1974.08 C2238.73492,1974.08 2231.37,1966.71508 2231.37,1957.63 L2231.37,1646.85 L2231.37,1646.85 Z" id="Path" fill="#E9F1FA" transform="translate(2252.975000, 1810.465000) rotate(90.000000) translate(-2252.975000, -1810.465000) "></path>
            <path d="M1261.89,1240.51 L1261.53,1247.32 L1251.53,1440.2 C1235.03,1520.14 1150.53,1556.44 1128.68,1564.61 C1125.35,1565.81 1123.5,1566.41 1123.5,1566.41 C1100.68382,1566.8358 1077.92107,1564.05189 1055.88,1558.14 C1029.22,1551.05 999.49,1537.95 976.47,1513.94 C970.128529,1507.3472 964.491414,1500.11145 959.65,1492.35 L939.3,1444.96 L909.24,1374.96 L880.81,1308.71 C878.250227,1302.80167 880.809792,1295.92615 886.61,1293.13 C916.913367,1278.28577 945.137671,1259.52897 970.56,1237.34 C995.93,1215.17 1021.45,1186.49 1040.18,1150.75 C1041.77708,1147.64999 1044.72699,1145.47077 1048.15946,1144.85524 C1051.59193,1144.23971 1055.11525,1145.25811 1057.69,1147.61 C1074.07702,1162.33976 1092.13741,1175.0938 1111.5,1185.61 C1133.10557,1197.38323 1155.89997,1206.8295 1179.5,1213.79 C1195.31911,1218.51587 1211.42124,1222.23662 1227.71,1224.93 C1237.22,1226.5 1245.23,1227.44 1251.13,1228 C1257.46952,1228.65127 1262.19421,1234.14438 1261.89,1240.51 L1261.89,1240.51 Z" id="Path" fill="#EA822D"></path>
            <path d="M1118.26,1570.21 C1096.87637,1570.06298 1075.59731,1567.21031 1054.93,1561.72 C1021.28,1552.72 993.99,1537.56 973.8,1516.5 C967.28568,1509.72402 961.491375,1502.29096 956.51,1494.32 L956.25,1493.82 L877.4,1310.11 C874.017246,1302.37626 877.386262,1293.35385 885.01,1289.73 C915.008958,1275.03421 942.947875,1256.46206 968.11,1234.49 C997.46,1208.85 1020.6,1180.07 1036.89,1148.97 C1039.01928,1144.85179 1042.94307,1141.95838 1047.50661,1141.1413 C1052.07014,1140.32421 1056.7541,1141.67643 1060.18,1144.8 C1076.35694,1159.31961 1094.17826,1171.89522 1113.28,1182.27 C1134.63747,1193.91949 1157.17447,1203.26214 1180.51,1210.14 C1196.18075,1214.81529 1212.13293,1218.48937 1228.27,1221.14 C1236.16,1222.45 1243.95,1223.47 1251.43,1224.14 C1259.80611,1224.95725 1266.05984,1232.2151 1265.63,1240.62 L1265.63,1240.62 L1265.27,1247.43 L1255.27,1440.58 L1255.21,1440.86 C1248.01,1475.77 1227.56,1506.49 1194.44,1532.16 C1174.80326,1547.13891 1153.11028,1559.20965 1130.03,1568 C1126.64,1569.22 1124.76,1569.82 1124.69,1569.85 L1124.22,1570 L1123.74,1570 C1123.4,1570.12 1121.48,1570.21 1118.26,1570.21 Z M962.95,1490.63 C967.628389,1498.07784 973.056664,1505.02737 979.15,1511.37 C998.38,1531.43 1024.52,1545.96 1056.84,1554.56 C1078.36485,1560.27752 1100.5708,1563.02298 1122.84,1562.72 C1123.57,1562.48 1125.15,1561.94 1127.42,1561.12 C1222.86,1525.44 1243.69,1459.54 1247.84,1439.72 L1257.84,1247.13 L1258.2,1240.32 C1258.42952,1235.87885 1255.12601,1232.04237 1250.7,1231.61 C1243.06,1230.88 1235.1,1229.83 1227.04,1228.5 C1210.59536,1225.78164 1194.33946,1222.02412 1178.37,1217.25 C1154.53237,1210.21655 1131.50975,1200.6696 1109.69,1188.77 C1090.08309,1178.11941 1071.7917,1165.20804 1055.19,1150.3 C1053.46581,1148.71494 1051.10015,1148.02632 1048.79462,1148.43837 C1046.48909,1148.85042 1044.50841,1150.31583 1043.44,1152.4 C1026.72,1184.33 1003.01,1213.82 972.98,1240.07 C947.309765,1262.48242 918.805781,1281.42456 888.2,1296.41 C884.175338,1298.3292 882.40385,1303.09893 884.2,1307.18 L962.95,1490.63 Z" id="Shape" fill="#D36922"></path>
            <path d="M1235.25,1252.26 L1231.83,1318.34 L1225.68,1436.73 C1214.86,1484.81 1172.26,1514.51 1143.39,1529.55 L1143.39,1529.55 C1135.46297,1533.69419 1127.28739,1537.34448 1118.91,1540.48 C1101.8206,1540.34124 1084.80076,1538.28504 1068.17,1534.35 C1042.33,1528.25 1012.56,1515.99 991.5,1491.77 L991.5,1491.77 C988.341775,1488.11093 985.435118,1484.24207 982.8,1480.19 L956.56,1419.05 L923.73,1342.59 L909.89,1310.41 C923.110432,1303.40183 935.936377,1295.67355 948.31,1287.26 C982.78,1263.91 1024.14,1228.41 1054.26,1178.68 C1067.73104,1189.36785 1082.05569,1198.93322 1097.09,1207.28 C1118.4558,1219.17175 1140.96211,1228.88719 1164.27,1236.28 C1180.95704,1241.63627 1197.9681,1245.92494 1215.2,1249.12 C1222.53,1250.43 1229.26,1251.45 1235.25,1252.26 Z" id="Path" fill="#FFD085"></path>
            <path d="M1167.04,1283.28 C1148.37333,1342.2 1129.74,1401.14333 1111.14,1460.11 C1105.75,1477.19 1085.42,1476.95 1074.34,1466.7 L1001.08,1398.9 C980.56,1379.9 1013.81,1352.08 1034.02,1370.77 L1080.43,1413.77 C1095.76333,1365.31 1111.07,1316.84667 1126.35,1268.38 C1134.78,1241.7 1175.4,1256.7 1167.04,1283.28 Z" id="Path" fill="#EA822D"></path>
            <path d="M1907.0792,585.571429 C1899.89717,585.571429 1893.43335,589.880645 1889.84233,595.626267 C1881.2239,610.708525 1884.81491,640.87304 1898.46077,671.755758 L1897.02924,675.799733 C1889.6425,696.692364 1882.15974,717.87308 1863.26883,753.630871 C1842.44095,762.249304 1798.63058,782.358981 1795.03957,803.905063 C1793.60316,810.368888 1795.75777,816.832713 1800.78519,821.860132 C1805.81261,826.169348 1812.27644,828.323956 1818.74026,828.323956 C1845.31376,828.323956 1871.16906,791.695616 1889.12413,760.812898 C1904.20639,755.785479 1927.90708,748.603452 1951.60777,744.294235 C1979.61768,768.713129 2004.03657,772.304142 2016.96422,772.304142 C2034.20108,772.304142 2040.66491,765.122115 2042.81952,758.65829 C2046.41053,751.476263 2044.25592,743.576033 2039.2285,737.830411 C2020.55523,718.438936 1969.56284,726.339167 1957.35339,727.775572 C1939.39832,710.538706 1927.18888,689.710827 1922.87966,682.528799 C1929.34348,663.137325 1933.6527,643.745851 1934.3709,622.917971 C1934.3709,604.962903 1927.18888,585.571429 1907.0792,585.571429 Z M1857.52321,770.149534 C1841.00455,797.441238 1823.76768,814.678104 1814.43104,814.678104 C1812.99464,814.678104 1811.55823,813.959902 1810.12183,813.241699 C1807.96722,811.805293 1807.24902,809.650685 1807.96722,806.777874 C1810.12183,796.723036 1828.7951,783.077184 1857.52321,770.149534 Z M2011.2186,737.830411 C2016.96422,739.266816 2022.70984,742.85783 2021.27343,750.039857 C2020.55523,755.067276 2014.09141,760.094696 2002.60016,757.221885 C1988.95431,753.630871 1976.74486,747.167046 1965.97182,738.548613 C1975.30846,737.112208 1996.13634,734.9576 2011.2186,737.830411 Z M1916.41583,701.202071 C1922.87966,711.975112 1933.6527,724.902761 1939.39832,730.648383 C1939.39832,731.366586 1917.13404,735.675802 1899.89717,741.421424 C1905.64279,729.93018 1913.54302,709.820504 1916.41583,701.202071 Z M1907.0792,598.499078 C1913.54302,598.499078 1914.97943,606.399308 1914.97943,612.863133 C1914.26123,627.945391 1911.38841,643.027648 1906.361,657.391703 C1895.58795,628.663593 1897.74256,608.553916 1901.33358,602.090092 C1902.76998,599.935483 1904.92459,598.499078 1907.0792,598.499078 Z" id="Combined-Shape" fill="#404A87"></path>
        </g>
    </g>
</svg>